<svg width="24" height="24" viewBox="0 0 24 24" fill="none" xmlns="http://www.w3.org/2000/svg">
<mask id="mask0_58_346" style="mask-type:alpha" maskUnits="userSpaceOnUse" x="0" y="0" width="24" height="24">
<rect width="24" height="24" fill="#D9D9D9"/>
</mask>
<g mask="url(#mask0_58_346)">
<path d="M12 22C10.6167 22 9.31667 21.7375 8.1 21.2125C6.88333 20.6875 5.825 19.975 4.925 19.075C4.025 18.175 3.3125 17.1167 2.7875 15.9C2.2625 14.6833 2 13.3833 2 12C2 10.6167 2.2625 9.31667 2.7875 8.1C3.3125 6.88333 4.025 5.825 4.925 4.925C5.825 4.025 6.88333 3.3125 8.1 2.7875C9.31667 2.2625 10.6167 2 12 2C13.3833 2 14.6833 2.2625 15.9 2.7875C17.1167 3.3125 18.175 4.025 19.075 4.925C19.975 5.825 20.6875 6.88333 21.2125 8.1C21.7375 9.31667 22 10.6167 22 12C22 13.3833 21.7375 14.6833 21.2125 15.9C20.6875 17.1167 19.975 18.175 19.075 19.075C18.175 19.975 17.1167 20.6875 15.9 21.2125C14.6833 21.7375 13.3833 22 12 22ZM12 17.1333C12.6945 16.4278 13.3147 15.7022 13.8609 14.9567C14.329 14.3199 14.7581 13.621 15.1482 12.8599C15.5383 12.0988 15.7333 11.3455 15.7333 10.6C15.7333 9.56667 15.3694 8.68612 14.6417 7.95835C13.9139 7.23057 13.0333 6.86668 12 6.86668C10.9667 6.86668 10.0861 7.23057 9.35835 7.95835C8.63057 8.68612 8.26668 9.56463 8.26668 10.5939C8.26668 11.3424 8.46173 12.0974 8.85183 12.8587C9.24191 13.62 9.67101 14.3192 10.1391 14.9563C10.6853 15.7021 11.3056 16.4278 12 17.1333ZM12 12C11.6111 12 11.2806 11.8639 11.0083 11.5917C10.7361 11.3194 10.6 10.9889 10.6 10.6C10.6 10.2111 10.7361 9.88057 11.0083 9.60835C11.2806 9.33612 11.6111 9.2 12 9.2C12.3889 9.2 12.7194 9.33612 12.9917 9.60835C13.2639 9.88057 13.4 10.2111 13.4 10.6C13.4 10.9889 13.2639 11.3194 12.9917 11.5917C12.7194 11.8639 12.3889 12 12 12Z" fill="#3898F1"/>
</g>
</svg>
