<svg width="30" height="30" viewBox="0 0 30 30" fill="none" xmlns="http://www.w3.org/2000/svg">
<mask id="mask0_3_1340" style="mask-type:alpha" maskUnits="userSpaceOnUse" x="0" y="0" width="30" height="30">
<rect width="30" height="30" fill="#D9D9D9"/>
</mask>
<g mask="url(#mask0_3_1340)">
<path d="M14.375 15.6251V5.43274C14.375 5.25486 14.4347 5.10623 14.5541 4.98683C14.6735 4.86744 14.8221 4.80774 15 4.80774C15.1779 4.80774 15.3265 4.86744 15.4459 4.98683C15.5653 5.10623 15.625 5.25486 15.625 5.43274V15.6251C15.625 15.8029 15.5653 15.9516 15.4459 16.071C15.3265 16.1904 15.1779 16.2501 15 16.2501C14.8221 16.2501 14.6735 16.1904 14.5541 16.071C14.4347 15.9516 14.375 15.8029 14.375 15.6251ZM15 25.0001C13.6186 25.0001 12.3217 24.7392 11.1094 24.2176C9.89704 23.696 8.83654 22.9808 7.92788 22.0722C7.01923 21.1635 6.30408 20.103 5.78244 18.8907C5.26081 17.6783 5 16.3815 5 15.0001C5 13.6267 5.27364 12.3226 5.82091 11.0878C6.36818 9.85301 7.12899 8.76286 8.10334 7.81736C8.23637 7.67953 8.38781 7.6026 8.55769 7.58658C8.72756 7.57056 8.88141 7.63146 9.01922 7.76927C9.15224 7.90229 9.20432 8.05253 9.17547 8.21999C9.14664 8.38747 9.06571 8.54252 8.93269 8.68514C8.08013 9.49283 7.41988 10.442 6.95194 11.5325C6.48398 12.6231 6.25 13.7789 6.25 15.0001C6.25 17.4167 7.10417 19.4792 8.8125 21.1876C10.5208 22.8959 12.5833 23.7501 15 23.7501C17.4375 23.7501 19.5052 22.8959 21.2031 21.1876C22.901 19.4792 23.75 17.4167 23.75 15.0001C23.75 13.7789 23.52 12.6207 23.0601 11.5253C22.6002 10.4299 21.9335 9.47843 21.0601 8.67074C20.9271 8.53291 20.8474 8.38146 20.8209 8.21639C20.7945 8.05133 20.8478 7.90229 20.9808 7.76927C21.1186 7.63146 21.2724 7.57056 21.4423 7.58658C21.6122 7.6026 21.7636 7.67953 21.8967 7.81736C22.8918 8.76286 23.6579 9.85301 24.1947 11.0878C24.7316 12.3226 25 13.6267 25 15.0001C25 16.3815 24.7392 17.6783 24.2176 18.8907C23.6959 20.103 22.982 21.1635 22.0757 22.0722C21.1695 22.9808 20.1102 23.696 18.8978 24.2176C17.6855 24.7392 16.3862 25.0001 15 25.0001Z" fill="white"/>
</g>
</svg>
