<svg width="24" height="24" viewBox="0 0 24 24" fill="none" xmlns="http://www.w3.org/2000/svg">
<path fill-rule="evenodd" clip-rule="evenodd" d="M11.0024 5.4893C11.2844 5.79265 11.2672 6.26721 10.9638 6.54926L5.90806 11.2501H20C20.4142 11.2501 20.75 11.5859 20.75 12.0001C20.75 12.4143 20.4142 12.7501 20 12.7501H5.9081L10.9638 17.4507C11.2672 17.7328 11.2844 18.2073 11.0024 18.5107C10.7203 18.814 10.2458 18.8313 9.94243 18.5493L3.48931 12.5494C3.3367 12.4075 3.25 12.2085 3.25 12.0001C3.25 11.7917 3.33669 11.5927 3.4893 11.4508L9.94242 5.45074C10.2458 5.16869 10.7203 5.18596 11.0024 5.4893Z" fill="#555555"/>
</svg>
