<svg width="48" height="48" viewBox="0 0 48 48" fill="none" xmlns="http://www.w3.org/2000/svg">
<mask id="mask0_189_927" style="mask-type:alpha" maskUnits="userSpaceOnUse" x="0" y="0" width="48" height="48">
<rect width="48" height="48" fill="#D9D9D9"/>
</mask>
<g mask="url(#mask0_189_927)">
<path d="M16.5001 23.2563V20.7436H31.5V23.2563H16.5001ZM16.5001 15.2563V12.7436H31.5V15.2563H16.5001ZM11.5128 28.7436H27C27.8483 28.7436 28.6329 28.9304 29.3536 29.3039C30.0743 29.6774 30.6919 30.1949 31.2064 30.8565L36.4872 37.736V8.12825C36.4872 7.94875 36.4295 7.8013 36.3141 7.6859C36.1987 7.5705 36.0513 7.5128 35.8718 7.5128H12.1283C11.9488 7.5128 11.8013 7.5705 11.6859 7.6859C11.5705 7.8013 11.5128 7.94875 11.5128 8.12825V28.7436ZM12.1283 40.4872H35.4116L29.2244 32.3935C28.9554 32.038 28.628 31.7596 28.242 31.5583C27.856 31.357 27.442 31.2563 27 31.2563H11.5128V39.8717C11.5128 40.0513 11.5705 40.1987 11.6859 40.3141C11.8013 40.4295 11.9488 40.4872 12.1283 40.4872ZM35.8718 43H12.1283C11.2687 43 10.5324 42.6935 9.91946 42.0806C9.30653 41.4676 9.00006 40.7313 9.00006 39.8717V8.12825C9.00006 7.26865 9.30653 6.53238 9.91946 5.91945C10.5324 5.30651 11.2687 5.00005 12.1283 5.00005H35.8718C36.7314 5.00005 37.4676 5.30651 38.0806 5.91945C38.6935 6.53238 39 7.26865 39 8.12825V39.8717C39 40.7313 38.6935 41.4676 38.0806 42.0806C37.4676 42.6935 36.7314 43 35.8718 43Z" fill="#999999"/>
</g>
</svg>
