<svg width="48" height="48" viewBox="0 0 48 48" fill="none" xmlns="http://www.w3.org/2000/svg">
<mask id="mask0_189_917" style="mask-type:alpha" maskUnits="userSpaceOnUse" x="0" y="0" width="48" height="48">
<rect width="48" height="48" fill="#D9D9D9"/>
</mask>
<g mask="url(#mask0_189_917)">
<path d="M9.00006 37.7692V35.2564H12.6155V19.7512C12.6155 17.0493 13.44 14.6467 15.0892 12.5434C16.7383 10.4401 18.8753 9.12268 21.5001 8.59105V7.50005C21.5001 6.80561 21.7429 6.21535 22.2286 5.72925C22.7142 5.24311 23.304 5.00005 23.9978 5.00005C24.6916 5.00005 25.282 5.24311 25.7692 5.72925C26.2564 6.21535 26.5 6.80561 26.5 7.50005V8.59745C29.1248 9.12481 31.2617 10.4401 32.9109 12.5434C34.56 14.6467 35.3846 17.0493 35.3846 19.7512V35.2564H39V37.7692H9.00006ZM23.9966 43.3845C23.0014 43.3845 22.1507 43.0305 21.4443 42.3225C20.7379 41.6145 20.3847 40.7634 20.3847 39.7692H27.6154C27.6154 40.7666 27.261 41.6185 26.5524 42.3249C25.8437 43.0313 24.9918 43.3845 23.9966 43.3845ZM15.1282 35.2565H32.8719V19.7513C32.8719 17.2958 32.0071 15.2032 30.2776 13.4737C28.5481 11.7442 26.4556 10.8794 24 10.8794C21.5444 10.8794 19.4519 11.7442 17.7224 13.4737C15.9929 15.2032 15.1282 17.2957 15.1282 19.7512V35.2565Z" fill="#999999"/>
</g>
</svg>
