<svg width="48" height="48" viewBox="0 0 48 48" fill="none" xmlns="http://www.w3.org/2000/svg">
<mask id="mask0_189_932" style="mask-type:alpha" maskUnits="userSpaceOnUse" x="0" y="0" width="48" height="48">
<rect width="48" height="48" fill="#D9D9D9"/>
</mask>
<g mask="url(#mask0_189_932)">
<path d="M10.936 38.9999V36.4872H13.927L17.909 23.2295C18.1013 22.5526 18.4712 22.0096 19.0186 21.6006C19.5661 21.1917 20.1889 20.9872 20.8872 20.9872H27.1128C27.8111 20.9872 28.4339 21.1917 28.9814 21.6006C29.5288 22.0096 29.8987 22.5526 30.091 23.2295L34.0731 36.4872H37.0641V38.9999H10.936ZM16.6013 36.4872H31.3988L27.6693 23.9423C27.6308 23.8013 27.5571 23.6923 27.4481 23.6153C27.3391 23.5384 27.2141 23.4999 27.0731 23.4999H20.927C20.7859 23.4999 20.6609 23.5384 20.5519 23.6153C20.4429 23.6923 20.3692 23.8013 20.3308 23.9423L16.6013 36.4872ZM22.7437 15.3974V6.8847H25.2564V15.3974H22.7437ZM34.0693 20.1153L32.2693 18.3154L38.3193 12.3154L40.0692 14.0654L34.0693 20.1153ZM36.9872 29.641V27.1282H45.5V29.641H36.9872ZM13.9308 20.1153L7.93081 14.0654L9.68076 12.3154L15.7307 18.3154L13.9308 20.1153ZM2.50006 29.641V27.1282H11.0128V29.641H2.50006Z" fill="#999999"/>
</g>
</svg>
