<svg width="48" height="48" viewBox="0 0 48 48" fill="none" xmlns="http://www.w3.org/2000/svg">
<mask id="mask0_189_922" style="mask-type:alpha" maskUnits="userSpaceOnUse" x="0" y="0" width="48" height="48">
<rect width="48" height="48" fill="#D9D9D9"/>
</mask>
<g mask="url(#mask0_189_922)">
<path d="M16.5 29.4999H19.0128V23.2563H28.0821V27.173L33.2884 22L28.0821 16.7744V20.7436H18.0641C17.621 20.7436 17.2495 20.8928 16.9497 21.1911C16.6499 21.4894 16.5 21.859 16.5 22.3V29.4999ZM24.0025 42.805C23.6017 42.805 23.2071 42.7305 22.8186 42.5813C22.4302 42.4322 22.0864 42.2084 21.7872 41.9101L6.08985 26.2128C5.79155 25.9151 5.56783 25.5725 5.4187 25.185C5.26953 24.7975 5.19495 24.4034 5.19495 24.0025C5.19495 23.6017 5.26953 23.2071 5.4187 22.8186C5.56783 22.4302 5.79155 22.0864 6.08985 21.7872L21.7872 6.08985C22.0849 5.79155 22.4275 5.56783 22.815 5.4187C23.2025 5.26953 23.5966 5.19495 23.9974 5.19495C24.3983 5.19495 24.7929 5.26953 25.1813 5.4187C25.5697 5.56783 25.9136 5.79155 26.2128 6.08985L41.9101 21.7872C42.2084 22.0849 42.4322 22.4275 42.5813 22.815C42.7305 23.2025 42.805 23.5966 42.805 23.9974C42.805 24.3983 42.7305 24.7929 42.5813 25.1813C42.4322 25.5697 42.2084 25.9136 41.9101 26.2128L26.2128 41.9101C25.9151 42.2084 25.5725 42.4322 25.185 42.5813C24.7975 42.7305 24.4034 42.805 24.0025 42.805ZM15.7025 32.2974L23.5769 40.1589C23.6923 40.2743 23.8333 40.332 24 40.332C24.1667 40.332 24.3077 40.2743 24.4231 40.1589L40.1589 24.4231C40.2743 24.3077 40.332 24.1667 40.332 24C40.332 23.8333 40.2743 23.6923 40.1589 23.5769L24.4231 7.84105C24.3077 7.72565 24.1667 7.66795 24 7.66795C23.8333 7.66795 23.6923 7.72565 23.5769 7.84105L7.84105 23.5769C7.72565 23.6923 7.66795 23.8333 7.66795 24C7.66795 24.1667 7.72565 24.3077 7.84105 24.4231L15.7025 32.2974Z" fill="#999999"/>
</g>
</svg>
