<svg width="36" height="36" viewBox="0 0 36 36" fill="none" xmlns="http://www.w3.org/2000/svg">
<mask id="mask0_189_912" style="mask-type:alpha" maskUnits="userSpaceOnUse" x="0" y="0" width="36" height="36">
<rect width="36" height="36" fill="#D9D9D9"/>
</mask>
<g mask="url(#mask0_189_912)">
<path d="M17.8892 6.4084L17.8892 6.40837C17.9134 6.38418 17.9362 6.36923 18 6.36923C18.0638 6.36923 18.0866 6.38418 18.1108 6.40837L18.1108 6.4084C18.1351 6.43264 18.15 6.45545 18.15 6.51923V18.75C18.15 18.8138 18.1351 18.8366 18.1108 18.8608L18.1108 18.8609C18.0866 18.8851 18.0638 18.9 18 18.9C17.9362 18.9 17.9134 18.8851 17.8892 18.8609L17.8892 18.8608C17.8649 18.8366 17.85 18.8138 17.85 18.75V6.51923C17.85 6.45545 17.8649 6.43264 17.8892 6.4084ZM7.53362 13.5484L7.53363 13.5484C8.15903 12.1373 9.02751 10.8927 10.1419 9.81137L10.1489 9.80452L10.1557 9.79744C10.2289 9.72167 10.282 9.70529 10.3256 9.70119C10.3324 9.70055 10.3355 9.70096 10.3361 9.70104C10.3366 9.70112 10.3376 9.70124 10.3397 9.70211C10.3435 9.70359 10.3639 9.71244 10.3988 9.74733C10.408 9.75656 10.4141 9.76381 10.418 9.76889C10.4055 9.8342 10.3724 9.9108 10.2912 10.0012C9.2156 11.024 8.38152 12.226 7.79095 13.6024C7.19638 14.988 6.9 16.4557 6.9 18C6.9 21.0591 7.98818 23.6867 10.1507 25.8493C12.3133 28.0118 14.9409 29.1 18 29.1C21.0826 29.1 23.7177 28.0128 25.8693 25.848C28.019 23.6851 29.1 21.0579 29.1 18C29.1 16.4571 28.809 14.9881 28.2253 13.598C27.6427 12.2105 26.7978 11.0022 25.694 9.97773C25.618 9.89602 25.5894 9.82865 25.5789 9.77265C25.5831 9.76696 25.5901 9.75842 25.6012 9.74733C25.6361 9.71244 25.6565 9.70359 25.6603 9.70211C25.6624 9.70124 25.6634 9.70112 25.6639 9.70104C25.6645 9.70096 25.6676 9.70055 25.6744 9.70119C25.718 9.70529 25.7711 9.72167 25.8443 9.79743L25.8533 9.8068L25.8627 9.81576C26.9998 10.8961 27.8719 12.138 28.4834 13.5445L29.0337 13.3053L28.4834 13.5445C29.0942 14.9492 29.4 16.4325 29.4 18C29.4 19.58 29.1021 21.0552 28.5099 22.4316C27.913 23.8188 27.0985 25.0276 26.066 26.0629C25.034 27.0977 23.827 27.9132 22.4403 28.5099C21.0641 29.102 19.5861 29.4 18 29.4C16.42 29.4 14.9448 29.1021 13.5684 28.5099C12.1815 27.9132 10.9729 27.0974 9.93771 26.0623C8.90258 25.0271 8.08682 23.8185 7.49007 22.4316C6.89785 21.0552 6.6 19.58 6.6 18C6.6 16.4342 6.91142 14.9523 7.53362 13.5484Z" fill="#555555" stroke="white" stroke-width="1.2"/>
</g>
</svg>
